<svg width="59" height="90" viewBox="0 0 59 90" fill="none" xmlns="http://www.w3.org/2000/svg">
<g clip-path="url(#clip0_167_597)">
<path d="M15.0513 89.6612C23.0898 89.6612 29.61 83.0214 29.61 74.8355V60.0098H15.0513C7.0128 60.0098 0.492676 66.6495 0.492676 74.8355C0.492676 83.0214 7.0128 89.6612 15.0513 89.6612Z" fill="#0ACF83"/>
<path d="M0.492676 45.1655C0.492676 36.9796 7.0128 30.3398 15.0513 30.3398H29.61V60.0094H15.0513C7.0128 59.9912 0.492676 53.3515 0.492676 45.1655Z" fill="#A259FF"/>
<path d="M0.492676 15.4956C0.492676 7.30965 7.0128 0.669922 15.0513 0.669922H29.61V30.3395H15.0513C7.0128 30.3395 0.492676 23.6816 0.492676 15.4956Z" fill="#F24E1E"/>
<path d="M29.6279 0.669922H44.1866C52.2251 0.669922 58.7452 7.30965 58.7452 15.4956C58.7452 23.6816 52.2251 30.3213 44.1866 30.3213H29.6279V0.669922Z" fill="#FF7262"/>
<path d="M58.7452 45.1655C58.7452 53.3515 52.2251 59.9913 44.1866 59.9913C36.1481 59.9913 29.6279 53.3515 29.6279 45.1655C29.6279 36.9796 36.1481 30.3398 44.1866 30.3398C52.2251 30.3398 58.7452 36.9796 58.7452 45.1655Z" fill="#1ABCFE"/>
</g>
<defs>
<clipPath id="clip0_167_597">
<rect width="58.2524" height="88.9906" fill="white" transform="translate(0.492676 0.669922)"/>
</clipPath>
</defs>
</svg>
